<?xml version="1.0" encoding="UTF-8"?>
<svg id="Layer_2" xmlns="http://www.w3.org/2000/svg" version="1.1" viewBox="0 0 520.54 154.69">
  <!-- Generator: Adobe Illustrator 30.5.1, SVG Export Plug-In . SVG Version: 2.1.4 Build 3)  -->
  <defs>
    <style>
      .st0 {
        fill: #fff;
      }

      .st1 {
        display: none;
        fill: none;
        stroke: #000;
        stroke-miterlimit: 10;
        stroke-width: .5px;
      }
    </style>
  </defs>
  <path class="st1" d="M20.85,135.87S106,26.44,277.05,40.64c171.05,14.21,243.7,142.4,243.7,142.4"/>
  <g>
    <g>
      <path d="M115.96,89.37c-5.85,3.72-8.75,5.62-14.49,9.52-9.54,6.34-22.63,4.98-29.78-4.29-3.96-5.4-5.94-8.1-9.9-13.5-7.14-10.27-2.75-23.6,7.07-30.29,6.32-4.29,9.52-6.39,15.95-10.47,10.04-6.34,23.96-5.02,30.51,5.61,3.38,5.78,5.07,8.67,8.45,14.45,5.66,10.2,1.8,22.75-7.81,28.98h0Z"/>
      <path class="st0" d="M96.92,64.32c-.22-.34-.54-.73-.77-1.1-1.59-2.17-8.93-11.54-10.94-14.04,2.36-2.53,6.6-5.08,8.25-5.82,1.62,1.86,2.69,4.08,4.36,6.27,1.81,2.38,4.36,6.38,7.05,10.1,1.87,2.59,6.41,9.21,8.33,11.83-3.1,2-4.63,3.02-7.69,5.08-1.6-2.33-2.39-3.5-3.99-5.85-1.86-2.59-3.29-4.75-4.59-6.47h-.01Z"/>
    </g>
    <g>
      <path d="M174.19,67.17c-6.66,1.72-10,2.63-16.61,4.55-11,3.07-22.92-2.35-26.84-13.32-2.1-6.36-3.15-9.53-5.25-15.89-3.62-11.9,4.52-23.24,15.9-26.57,7.28-2.11,10.94-3.11,18.28-5.01,11.48-2.93,24.23,2.7,27.17,14.77,1.43,6.54,2.16,9.81,3.59,16.35,2.24,11.4-5.2,22.17-16.24,25.13h0Z"/>
      <path class="st0" d="M164.95,45.1c1.99,5.03,3.84,9.43,5.29,12.8-2.38,1.58-5.14,2.7-8.26,3.34-.51-1.16-.76-1.74-1.27-2.9.02.02.04.02.07.03-4.77-10.84-9.25-21.82-13.8-32.75,2.14-2.39,3.22-3.59,5.4-5.96,7.36,7.8,13.53,14.5,15.49,16.46-.65-2.25-1.25-4.51-1.85-6.78-1.07-4.04-3.9-11.89-3.26-13.41.36-.86,3.03-1.66,3.95-1.9.97-.25,2.69-.33,5.26-.36.86,3.89,2,8.95,2.93,12.71,2.31,9.38,4.98,18.84,8.09,28-1.83.94-2.74,1.42-4.55,2.38-3.72-3.21-8.26-7.07-13.49-11.67h0,0Z"/>
    </g>
    <g>
      <path d="M472.55,148.16c-5.05-4.88-7.61-7.28-12.79-11.99-8.43-7.79-10.25-20.86-2.9-30.02,4.32-5.12,6.47-7.67,10.8-12.79,8.34-9.4,22.37-8.15,31.19-.15,5.7,5.19,8.51,7.83,14.07,13.19,8.56,8.29,10.83,22.28,1.97,31.25-4.83,4.63-7.24,6.96-12.08,11.6-8.72,7.95-21.93,6.84-30.26-1.08h0Z"/>
      <path class="st0" d="M504.45,136.6s.02-.03.03-.03c-5.12,3.73-10.37,5.43-15.62,5.28-4.63-.14-8.65-1.8-12.16-5.14-2.58-2.45-4.36-5.6-5.11-8.73-1.49-6.98,2.51-14.4,6.47-18.81,6.35-7.08,14.32-8.64,23.78-4.27-.02,0-.03-.01-.04-.04,1.81.81,3.43,2.01,4.86,3.38,3.79,3.62,5.81,8.27,5.85,13.02.04,4.85-1.94,9.78-5.49,13.27-.64.63-1.57,1.39-2.57,2.07h0ZM503.77,119.77c.27-2.37-.28-4.22-1.5-5.4-.44-.43-1.09-.9-2.02-1.31.03.01.04.01.08,0-5.45-2.51-10.86-1.66-15.02,2.83-3.35,3.62-5.91,7.6-5.09,12.01.3,1.65,1.12,2.97,2.14,3.94,1.29,1.23,3.09,1.71,5.45,1.58,2.8-.16,6.12-1.69,9.81-4.34,0,.02-.02.03-.03.03.85-.7,1.66-1.37,2.22-1.94,2.37-2.41,3.7-4.96,3.97-7.4v-.02h0v.02Z"/>
    </g>
    <g>
      <path d="M361.6,76.43c-6.22-2.98-9.35-4.42-15.65-7.2-10.41-4.73-15.99-16.56-11.91-27.44,2.48-6.22,3.72-9.33,6.22-15.54,4.87-11.42,18.37-14.9,29.22-10.13,6.93,3.07,10.37,4.66,17.21,7.93,10.68,5.14,16.86,17.66,11.35,28.81-3.11,5.93-4.67,8.89-7.78,14.83-5.64,10.18-18.3,13.59-28.66,8.75h.01-.01Z"/>
      <path class="st0" d="M375.22,48.18c.17-.36.33-.83.53-1.24,1.02-2.49,5.13-13.66,6.2-16.69,3.38.67,7.75,2.92,9.24,3.94-.74,2.36-2.05,4.43-3.04,7-1.06,2.79-3.13,7.07-4.89,11.3-1.22,2.95-4.46,10.29-5.68,13.31-3.32-1.57-4.99-2.34-8.33-3.86,1.15-2.59,1.72-3.88,2.87-6.47,1.23-2.94,2.31-5.3,3.08-7.31h.01s.01.02.01.02Z"/>
    </g>
    <g>
      <path d="M420.81,105.72c-5.67-4.02-8.52-5.98-14.28-9.83-9.47-6.44-13.05-19.05-7.18-29.14,3.5-5.7,5.26-8.56,8.76-14.26,6.77-10.47,20.73-11.51,30.62-4.95,6.34,4.22,9.49,6.39,15.72,10.82,9.67,6.9,13.79,20.33,6.41,30.44-4.07,5.32-6.11,7.97-10.19,13.28-7.34,9.11-20.46,10.19-29.87,3.65h0Z"/>
      <path class="st0" d="M432.15,83.86c-2.6,4.74-4.81,8.98-6.48,12.24-2.75-.85-5.4-2.27-7.9-4.27.57-1.13.85-1.69,1.42-2.82,0,.02,0,.05.02.07,5.3-10.6,10.88-21.05,16.4-31.54,3.22.13,4.84.2,8.08.38-1.28,10.68-2.48,19.72-2.72,22.48,1.32-1.94,2.68-3.84,4.03-5.74,2.43-3.41,6.68-10.59,8.25-11.05.9-.27,3.25,1.29,4.02,1.85.82.6,1.99,1.87,3.68,3.86-2.45,3.14-5.62,7.26-7.92,10.37-5.75,7.76-11.32,15.85-16.4,24.1-1.91-.82-2.86-1.23-4.78-2.03.08-4.93.13-10.91.31-17.9h0Z"/>
    </g>
    <g>
      <path d="M302.33,60.96c-6.81-.89-10.22-1.29-17.06-1.98-11.35-1.26-20.29-10.79-19.8-22.38.43-6.69.64-10.03,1.07-16.7,1.08-12.35,12.78-19.87,24.57-18.71,7.52.76,11.27,1.19,18.76,2.18,11.74,1.57,21.44,11.56,19.65,23.84-1.12,6.61-1.66,9.91-2.78,16.5-2.18,11.4-13.08,18.62-24.42,17.25h-.01.02Z"/>
      <path class="st0" d="M316.77,21.53h.05c-2.81,1.52-4.21,2.29-6.98,3.85h.05c-.47.25-1.81.81-3.65,1.58.02-.02.03-.03.06-.04-.35.16-.52.23-.87.39,2.25,2.85,3.57,4.69,4.22,5.43,2.12,2.71,4.1,5,5.87,6.82,1.47,1.54,2.2,2.32,3.64,3.88-.6,1.42-1.22,2.69-1.94,3.63-.86,1.12-2.06,2.06-3.22,2.69-2-2.29-3.02-3.43-5.06-5.71-1.61-1.83-5.04-6.6-6.66-9.52-.46,2.8-.93,7.41-1.33,9.37-.13.63-.32,3.02-.43,3.45-3.26.4-6.13-.14-8.74-1.77.21-1.1.31-1.65.52-2.75.66-5.49,1.46-11.04,2.1-16.55.16-1.43.57-3.82,1.11-6.99.55-3.21,1.44-11.01,1.61-12.54,3.57-.35,6.74.08,9.43.97-.88,4.49-1.32,6.73-2.19,11.21,2.64-1.27,6.53-3.03,10.32-5.35,1.32-.8,1.98-1.19,3.31-1.99,2.6,2.2,4.21,4.46,4.95,6.53-1.22.64-1.82.95-3.03,1.6-1.26.72-1.89,1.07-3.14,1.8h.01,0Z"/>
    </g>
    <g>
      <path d="M236.13,58.31c-6.87-.19-10.3-.25-17.17-.23-11.42-.1-21.3-8.66-21.99-20.25-.26-6.69-.38-10.04-.63-16.72-.19-12.41,10.72-21.07,22.56-21.11,7.56,0,11.34.04,18.89.25,11.84.37,22.48,9.33,21.96,21.72-.44,6.68-.65,10.03-1.09,16.7-1.01,11.56-11.1,19.85-22.51,19.64h-.02Z"/>
      <path class="st0" d="M235.66,26.91c0-.39-.03-.89-.02-1.35-.09-2.69-.89-14.57-1.15-17.76,3.35-.77,8.24-.51,10.01-.18.3,2.46-.07,4.89.08,7.62.16,2.99.02,7.73.15,12.31.09,3.19.12,11.21.25,14.47-3.65-.07-5.49-.1-9.14-.12,0-2.83,0-4.24-.02-7.07-.08-3.19-.06-5.78-.17-7.92h.01Z"/>
    </g>
    <g>
      <path d="M61.2,130.08c-4.99,4.91-7.46,7.4-12.32,12.47-8.02,8.23-21.18,9.85-30.19,2.23-5.01-4.44-7.5-6.67-12.51-11.13-9.2-8.63-7.46-22.69.77-31.3,5.35-5.58,8.06-8.32,13.55-13.72,8.5-8.33,22.49-10.1,31.17-1.04,4.52,4.95,6.76,7.42,11.28,12.37,7.71,8.87,6.38,22-1.75,30.11h0Z"/>
      <path class="st0" d="M59.6,112.35c-.89.84-2.32,1.72-4.23,2.66-.84-.88-1.26-1.32-2.1-2.2-.51-.69-1.47-1.14-2.12-1.82-3.86-4.02-10.22-9.52-13.15-11.67,1.32,5.44,6,14.8,7.68,18.33-1.24,1.23-1.87,1.84-3.09,3.08-6.12-1.28-9.19-1.89-15.38-3.02,4.32,4.64,11.69,10.34,11.8,12.16.05.89-2.61,3.37-3.17,3.95-.96,1.01-2.43,2.06-4.33,3.08-.84-.81-1.27-1.22-2.11-2.05-6.9-7.62-13.76-15.27-20.59-22.96.53-2.77.81-4.16,1.37-6.95,9.17,1.78,13.72,2.74,22.74,4.82-2.26-4.29-5.51-16.27-6.21-21.07,3.05-1.6,4.57-2.38,7.62-3.92.84.69,1.26,1.03,2.09,1.72,1.12.86,2.42,1.83,4.07,3.01,1.11.82,1.66,1.23,2.77,2.05,5.2,4,14.04,11.42,17.37,14.37.84.81,1.27,1.22,2.11,2.05-.76,1.38-1.62,2.95-3.13,4.37h0Z"/>
    </g>
  </g>
</svg>