<svg width="107" height="97" viewBox="0 0 107 97" fill="none" xmlns="http://www.w3.org/2000/svg">
<path d="M42.8 59.2778H64.2C65.6189 59.2778 66.9797 58.71 67.983 57.6994C68.9863 56.6888 69.55 55.3181 69.55 53.8889C69.55 52.4597 68.9863 51.089 67.983 50.0784C66.9797 49.0678 65.6189 48.5 64.2 48.5H42.8C41.3811 48.5 40.0203 49.0678 39.017 50.0784C38.0137 51.089 37.45 52.4597 37.45 53.8889C37.45 55.3181 38.0137 56.6888 39.017 57.6994C40.0203 58.71 41.3811 59.2778 42.8 59.2778ZM90.95 0H16.05C11.7933 0 7.7109 1.70327 4.70094 4.73511C1.69098 7.76695 0 11.879 0 16.1667V32.3333C0 33.7626 0.563659 35.1332 1.56698 36.1439C2.5703 37.1545 3.93109 37.7222 5.35 37.7222H10.7V80.8333C10.7 85.121 12.391 89.2331 15.4009 92.2649C18.4109 95.2967 22.4933 97 26.75 97H80.25C84.5067 97 88.5891 95.2967 91.5991 92.2649C94.609 89.2331 96.3 85.121 96.3 80.8333V37.7222H101.65C103.069 37.7222 104.43 37.1545 105.433 36.1439C106.436 35.1332 107 33.7626 107 32.3333V16.1667C107 11.879 105.309 7.76695 102.299 4.73511C99.2891 1.70327 95.2067 0 90.95 0ZM85.6 80.8333C85.6 82.2626 85.0363 83.6332 84.033 84.6439C83.0297 85.6545 81.6689 86.2222 80.25 86.2222H26.75C25.3311 86.2222 23.9703 85.6545 22.967 84.6439C21.9637 83.6332 21.4 82.2626 21.4 80.8333V37.7222H85.6V80.8333ZM96.3 26.9444H10.7V16.1667C10.7 14.7374 11.2637 13.3668 12.267 12.3561C13.2703 11.3455 14.6311 10.7778 16.05 10.7778H90.95C92.3689 10.7778 93.7297 11.3455 94.733 12.3561C95.7363 13.3668 96.3 14.7374 96.3 16.1667V26.9444Z" fill="black"/>
</svg>
