<svg width="69" height="69" viewBox="0 0 69 69" fill="none" xmlns="http://www.w3.org/2000/svg">
<g clip-path="url(#clip0_2151_9228)">
<path d="M0 34.3955C0 25.2732 3.6238 16.5246 10.0742 10.0742C16.5246 3.6238 25.2732 0 34.3955 0C43.5177 0 52.2663 3.6238 58.7167 10.0742C65.1671 16.5246 68.7909 25.2732 68.7909 34.3955C68.7909 43.5177 65.1671 52.2663 58.7167 58.7167C52.2663 65.1671 43.5177 68.7909 34.3955 68.7909C25.2732 68.7909 16.5246 65.1671 10.0742 58.7167C3.6238 52.2663 0 43.5177 0 34.3955ZM34.3955 6.44915C26.9836 6.44915 19.8754 9.39348 14.6344 14.6344C9.39348 19.8754 6.44915 26.9836 6.44915 34.3955C6.44915 41.8073 9.39348 48.9155 14.6344 54.1565C19.8754 59.3974 26.9836 62.3418 34.3955 62.3418C41.8073 62.3418 48.9155 59.3974 54.1565 54.1565C59.3974 48.9155 62.3418 41.8073 62.3418 34.3955C62.3418 26.9836 59.3974 19.8754 54.1565 14.6344C48.9155 9.39348 41.8073 6.44915 34.3955 6.44915Z" fill="black"/>
<path d="M48.2526 25.5465C48.5502 25.2589 48.788 24.9159 48.9523 24.537C49.1166 24.158 49.2043 23.7506 49.2103 23.338C49.2164 22.9253 49.1406 22.5156 48.9874 22.132C48.8342 21.7485 48.6065 21.3988 48.3174 21.1028C48.0282 20.8067 47.6833 20.5703 47.3023 20.4068C46.9213 20.2434 46.5117 20.1561 46.0968 20.1501C45.6819 20.1442 45.2699 20.2195 44.8843 20.3719C44.4987 20.5242 44.147 20.7507 43.8494 21.0382L34.7839 29.7965L25.9775 20.7768C25.3888 20.2013 24.597 19.8777 23.7715 19.8754C22.946 19.873 22.1524 20.1921 21.5605 20.7644C20.9686 21.3366 20.6254 22.1166 20.6044 22.9373C20.5833 23.7581 20.8861 24.5544 21.4479 25.156L30.2543 34.1725L21.1857 42.9309C20.8773 43.2158 20.6293 43.5592 20.4561 43.9407C20.283 44.3223 20.1883 44.7345 20.1776 45.153C20.1668 45.5715 20.2403 45.9879 20.3936 46.3778C20.547 46.7676 20.7771 47.1231 21.0705 47.4233C21.3639 47.7235 21.7146 47.9624 22.1021 48.1258C22.4896 48.2893 22.9061 48.3742 23.327 48.3754C23.7479 48.3765 24.1648 48.2941 24.5533 48.1328C24.9417 47.9715 25.2938 47.7346 25.5888 47.4361L34.6544 38.6809L43.4608 47.6974C43.7456 48.01 44.0907 48.2623 44.4756 48.4393C44.8606 48.6164 45.2774 48.7146 45.7012 48.728C46.1251 48.7414 46.5474 48.6698 46.9428 48.5175C47.3383 48.3652 47.6989 48.1352 48.0031 47.8414C48.3073 47.5475 48.5489 47.1957 48.7134 46.807C48.878 46.4182 48.9622 46.0005 48.9611 45.5788C48.9599 45.157 48.8733 44.7397 48.7066 44.3519C48.5398 43.9641 48.2963 43.6137 47.9904 43.3214L39.1872 34.3048L48.2526 25.5465Z" fill="black"/>
</g>
<defs>
<clipPath id="clip0_2151_9228">
<rect width="68.7909" height="68.7909" fill="white"/>
</clipPath>
</defs>
</svg>
