<svg width="92" height="100" viewBox="0 0 92 100" fill="none" xmlns="http://www.w3.org/2000/svg">
<path d="M64.6384 23.8574C70.418 24.2825 76.1826 24.9074 81.9228 25.7309C83.6214 25.9766 85.3141 26.2387 87.001 26.5171M81.9228 25.7309L76.6163 85.1902C76.3995 87.856 75.1286 90.3499 73.061 92.1681C70.923 94.0156 68.2345 95.0177 65.4643 94.9998H26.5377C23.7263 94.9998 21.0085 93.9924 18.941 92.1742C17.9361 91.3144 17.1043 90.2537 16.4939 89.0536C15.8835 87.8536 15.5068 86.5382 15.3857 85.1841L10.0791 25.7309M27.3635 23.8574C21.584 24.2825 15.8194 24.9074 10.0791 25.7309C8.38055 25.9766 6.68783 26.2366 5.00098 26.511M64.6384 23.8574C52.2287 22.9451 39.7733 22.9451 27.3635 23.8574M64.6384 23.8574C64.6384 10.8722 56.1163 5 46.001 5C35.8857 5 27.3635 11.7076 27.3635 23.8574M37.2153 73.501L34.2867 45.8598M57.7153 45.8598L54.7867 73.501" stroke="black" stroke-width="10" stroke-linecap="round" stroke-linejoin="round"/>
</svg>
