<svg width="70" height="70" viewBox="0 0 70 70" fill="none" xmlns="http://www.w3.org/2000/svg">
<g clip-path="url(#clip0_2270_3957)">
<path d="M35 3C52.6731 3 67 17.3269 67 35C67 52.6731 52.6731 67 35 67C17.3269 67 3 52.6731 3 35C3 17.3269 17.3269 3 35 3Z" fill="#F5F5F5" stroke="black" stroke-width="6" stroke-linecap="round" stroke-linejoin="round"/>
<path d="M47.1375 29.748C47.1375 33.4589 45.2759 36.7526 42.3851 38.8223L45.2308 42.4492C47.2966 40.9727 48.9733 39.0557 50.1277 36.8507C51.282 34.6457 51.8822 32.2137 51.8803 29.748H47.1375ZM35.2803 18.4137C38.425 18.4137 41.4409 19.6079 43.6646 21.7335C45.8882 23.8591 47.1375 26.742 47.1375 29.748H51.8803C51.8803 25.5396 50.1314 21.5035 47.0183 18.5276C43.9052 15.5518 39.6829 13.88 35.2803 13.88V18.4137ZM23.4231 29.748C23.4231 26.742 24.6723 23.8591 26.896 21.7335C29.1196 19.6079 32.1355 18.4137 35.2803 18.4137V13.88C30.8776 13.88 26.6553 15.5518 23.5422 18.5276C20.4291 21.5035 18.6802 25.5396 18.6802 29.748H23.4231ZM28.1754 38.8223C26.6987 37.768 25.5001 36.3986 24.675 34.8232C23.8499 33.2477 23.4212 31.5098 23.4231 29.748H18.6802C18.6783 32.2137 19.2785 34.6457 20.4328 36.8507C21.5872 39.0557 23.264 40.9727 25.3297 42.4492L28.1754 38.8223ZM32.9017 51.834C32.8265 48.3775 32.0794 44.9646 30.6986 41.7692L26.3162 43.5033C27.4687 46.1714 28.0972 49.0277 28.1612 51.9293L32.9017 51.834ZM38.4627 50.6281C37.4746 51.1005 36.385 51.3464 35.2803 51.3464C34.1755 51.3464 33.0859 51.1005 32.0978 50.6281L29.9777 54.6835C31.6241 55.4704 33.4395 55.88 35.2803 55.88C37.121 55.88 38.9364 55.4704 40.5828 54.6835L38.4627 50.6281ZM39.8619 41.7715C38.4806 44.966 37.7327 48.3782 37.6564 51.834L42.3993 51.9293C42.4633 49.0277 43.0918 46.1714 44.2443 43.5033L39.8619 41.7715ZM40.5828 54.6835C41.1192 54.426 41.5719 54.0334 41.892 53.548C42.2122 53.0627 42.3876 52.5029 42.3993 51.9293L37.6564 51.834C37.663 51.5818 37.7415 51.3362 37.8837 51.1236C38.0258 50.911 38.226 50.7397 38.4627 50.6281L40.5828 54.6835ZM28.1612 51.9293C28.1849 53.0718 28.8584 54.1485 29.9777 54.6835L32.0978 50.6281C32.3345 50.7397 32.5347 50.911 32.6768 51.1236C32.819 51.3362 32.8975 51.5818 32.9041 51.834L28.1612 51.9293ZM25.3297 42.4492C25.6854 42.7077 25.8965 42.8573 26.0435 42.9706C26.1929 43.0885 26.1644 43.084 26.098 43.0024L29.8449 40.2232C29.4015 39.6746 28.7137 39.2076 28.1754 38.8223L25.3297 42.4492ZM30.6986 41.7692C30.5137 41.3408 30.2789 40.7559 29.8449 40.2232L26.098 43.0024C26.0672 42.9616 26.0601 42.9412 26.0909 43.0024L26.1739 43.1792L26.3162 43.5033L30.6986 41.7692ZM42.3851 38.8223C41.8468 39.2076 41.1567 39.6769 40.7132 40.2232L44.4625 43.0024C44.3984 43.0817 44.3676 43.0885 44.517 42.9729C44.664 42.8573 44.8727 42.7077 45.2308 42.4515L42.3851 38.8223ZM44.2443 43.5033L44.3866 43.1792L44.4696 43.0024C44.5004 42.9412 44.4933 42.9616 44.4625 43.0024L40.7132 40.2232C40.2792 40.7582 40.0468 41.3407 39.8619 41.7715L44.2443 43.5033Z" fill="black"/>
<path d="M42.3757 43.3492C40.2762 44.6923 37.8067 45.4092 35.2804 45.4092C32.7541 45.4092 30.2847 44.6923 28.1851 43.3492" stroke="black" stroke-width="4"/>
</g>
<defs>
<clipPath id="clip0_2270_3957">
<rect width="70" height="70" fill="white"/>
</clipPath>
</defs>
</svg>
