<svg width="95" height="97" viewBox="0 0 95 97" fill="none" xmlns="http://www.w3.org/2000/svg">
<path d="M88.3502 21.3993L71.6726 11.2635L44.5191 53.1191L61.1864 63.2449L88.3502 21.3993ZM41.9759 65.9896L41.6076 75.4992L50.3043 71.0458L58.3919 66.9156L42.3097 57.1361L41.9759 65.9896ZM92.8 6.00072L84.0827 0.694659C83.0284 0.0544706 81.7546 -0.15428 80.5413 0.114304C79.328 0.382889 78.2746 1.10682 77.6127 2.12693L74.1712 7.41634L90.8384 17.5488L94.2799 12.2661C95.6565 10.1343 95.0026 7.32641 92.8 5.99406V6.00072ZM79.1544 85.3419C79.1544 86.2579 78.3801 87.0073 77.4337 87.0073H12.0451C11.5887 87.0073 11.151 86.8319 10.8283 86.5195C10.5056 86.2072 10.3243 85.7836 10.3243 85.3419V22.0555C10.3243 21.6138 10.5056 21.1902 10.8283 20.8778C11.151 20.5655 11.5887 20.3901 12.0451 20.3901H57.6244L64.1082 10.3975H12.0451C5.403 10.3975 -0.00016696 15.6269 -0.00016696 22.0555V85.3419C-0.00016696 91.7705 5.403 96.9999 12.0451 96.9999H77.4337C84.0758 96.9999 89.479 91.7705 89.479 85.3419V32.1713L79.1544 48.0795V85.3519V85.3419Z" fill="black"/>
</svg>
