<svg width="200" height="200" viewBox="0 0 200 200" fill="none" xmlns="http://www.w3.org/2000/svg">
<path d="M180 105.407V46.25C180 43.3989 178.946 40.6646 177.071 38.6486C175.196 36.6326 172.652 35.5 170 35.5H30C27.3478 35.5 24.8043 36.6326 22.9289 38.6486C21.0536 40.6646 20 43.3989 20 46.25V153.75C20 156.601 21.0536 159.335 22.9289 161.351C24.8043 163.367 27.3478 164.5 30 164.5H65.04L108.94 85.7885C111.283 81.5899 114.484 78.0198 118.302 75.349C122.119 72.6783 126.452 70.9769 130.972 70.3739C135.492 69.771 140.08 70.2823 144.389 71.869C148.697 73.4558 152.613 76.0763 155.84 79.532L180 105.407ZM180 135.754L141.72 94.754C140.644 93.6033 139.338 92.731 137.902 92.2033C136.465 91.6757 134.936 91.5064 133.43 91.7084C131.924 91.9104 130.48 92.4784 129.208 93.3693C127.937 94.2601 126.87 95.4506 126.09 96.8503L88.36 164.5H170C172.652 164.5 175.196 163.367 177.071 161.351C178.946 159.335 180 156.601 180 153.75V135.754ZM30 14H170C177.957 14 185.587 17.3978 191.213 23.4458C196.839 29.4939 200 37.6968 200 46.25V153.75C200 162.303 196.839 170.506 191.213 176.554C185.587 182.602 177.957 186 170 186H30C22.0435 186 14.4129 182.602 8.7868 176.554C3.16071 170.506 0 162.303 0 153.75L0 46.25C0 37.6968 3.16071 29.4939 8.7868 23.4458C14.4129 17.3978 22.0435 14 30 14ZM60 110.75C52.0435 110.75 44.4129 107.352 38.7868 101.304C33.1607 95.2561 30 87.0532 30 78.5C30 69.9468 33.1607 61.7439 38.7868 55.6958C44.4129 49.6478 52.0435 46.25 60 46.25C67.9565 46.25 75.5871 49.6478 81.2132 55.6958C86.8393 61.7439 90 69.9468 90 78.5C90 87.0532 86.8393 95.2561 81.2132 101.304C75.5871 107.352 67.9565 110.75 60 110.75ZM60 89.25C62.6522 89.25 65.1957 88.1174 67.0711 86.1014C68.9464 84.0854 70 81.3511 70 78.5C70 75.6489 68.9464 72.9146 67.0711 70.8986C65.1957 68.8826 62.6522 67.75 60 67.75C57.3478 67.75 54.8043 68.8826 52.9289 70.8986C51.0536 72.9146 50 75.6489 50 78.5C50 81.3511 51.0536 84.0854 52.9289 86.1014C54.8043 88.1174 57.3478 89.25 60 89.25Z" fill="black" fill-opacity="0.8"/>
</svg>
