<svg width="200" height="200" viewBox="0 0 200 200" fill="none" xmlns="http://www.w3.org/2000/svg">
<path d="M133.333 70.8333C144.442 85.65 144.442 114.35 133.333 129.167M158.333 41.6667C191.567 73.4 191.767 126.808 158.333 158.333M16.6666 124.658V75.3333C16.6666 70.55 20.4 66.6667 25 66.6667H54.8833C55.9861 66.6627 57.0766 66.4355 58.0892 65.9987C59.1018 65.5619 60.0154 64.9245 60.775 64.125L85.775 35.8917C91.025 30.425 100 34.3 100 42.025V157.975C100 165.758 90.9166 169.6 85.7 164.025L60.7833 135.95C60.0216 135.128 59.0987 134.471 58.0722 134.021C57.0457 133.571 55.9375 133.337 54.8166 133.333H25C20.4 133.333 16.6666 129.45 16.6666 124.658Z" stroke="black" stroke-opacity="0.8" stroke-width="25" stroke-linecap="round" stroke-linejoin="round"/>
</svg>
