<svg width="206" height="204" viewBox="0 0 206 204" fill="none" xmlns="http://www.w3.org/2000/svg">
<g filter="url(#filter0_dd_4_59)">
<path d="M190.184 97.794C190.184 109.192 187.919 120.478 183.517 131.009C179.115 141.539 172.663 151.107 164.529 159.167C156.396 167.226 146.74 173.619 136.112 177.981C125.485 182.343 114.095 184.588 102.592 184.588C91.0895 184.588 79.6993 182.343 69.0721 177.981C58.445 173.619 48.7889 167.226 40.6552 159.167C32.5215 151.107 26.0695 141.539 21.6676 131.009C17.2656 120.478 15 109.192 15 97.794C15 74.7748 24.2284 52.6984 40.6552 36.4214C57.0819 20.1443 79.3613 11 102.592 11C125.823 11 148.103 20.1443 164.529 36.4214C180.956 52.6984 190.184 74.7748 190.184 97.794Z" fill="#91F2BE"/>
<path d="M190.184 97.794C190.184 109.192 187.919 120.478 183.517 131.009C179.115 141.539 172.663 151.107 164.529 159.167C156.396 167.226 146.74 173.619 136.112 177.981C125.485 182.343 114.095 184.588 102.592 184.588C91.0895 184.588 79.6993 182.343 69.0721 177.981C58.445 173.619 48.7889 167.226 40.6552 159.167C32.5215 151.107 26.0695 141.539 21.6676 131.009C17.2656 120.478 15 109.192 15 97.794C15 74.7748 24.2284 52.6984 40.6552 36.4214C57.0819 20.1443 79.3613 11 102.592 11C125.823 11 148.103 20.1443 164.529 36.4214C180.956 52.6984 190.184 74.7748 190.184 97.794Z" stroke="black" stroke-width="10" stroke-linecap="round" stroke-linejoin="round"/>
</g>
<g filter="url(#filter1_d_4_59)">
<path d="M129.376 89.7703L98.2613 69.2098C96.7942 68.2399 95.0887 67.6832 93.3271 67.5993C91.5655 67.5154 89.814 67.9074 88.2598 68.7334C86.7056 69.5594 85.4071 70.7883 84.5031 72.2888C83.5991 73.7894 83.1235 75.5051 83.1273 77.2527V118.364C83.1271 120.11 83.6052 121.823 84.5106 123.321C85.416 124.819 86.7148 126.045 88.2684 126.869C89.822 127.692 91.5721 128.083 93.332 127.998C95.0919 127.913 96.7956 127.357 98.2613 126.388L129.376 105.827C130.709 104.947 131.802 103.753 132.558 102.354C133.314 100.954 133.709 99.3911 133.709 97.8036C133.709 96.2161 133.314 94.6532 132.558 93.2535C131.802 91.8538 130.709 90.651 129.376 89.7703Z" stroke="black" stroke-width="10" stroke-linecap="round" stroke-linejoin="round" shape-rendering="crispEdges"/>
</g>
<defs>
<filter id="filter0_dd_4_59" x="0" y="0" width="205.184" height="203.588" filterUnits="userSpaceOnUse" color-interpolation-filters="sRGB">
<feFlood flood-opacity="0" result="BackgroundImageFix"/>
<feColorMatrix in="SourceAlpha" type="matrix" values="0 0 0 0 0 0 0 0 0 0 0 0 0 0 0 0 0 0 127 0" result="hardAlpha"/>
<feOffset dy="4"/>
<feGaussianBlur stdDeviation="5"/>
<feComposite in2="hardAlpha" operator="out"/>
<feColorMatrix type="matrix" values="0 0 0 0 0 0 0 0 0 0 0 0 0 0 0 0 0 0 0.25 0"/>
<feBlend mode="normal" in2="BackgroundImageFix" result="effect1_dropShadow_4_59"/>
<feColorMatrix in="SourceAlpha" type="matrix" values="0 0 0 0 0 0 0 0 0 0 0 0 0 0 0 0 0 0 127 0" result="hardAlpha"/>
<feMorphology radius="6" operator="dilate" in="SourceAlpha" result="effect2_dropShadow_4_59"/>
<feOffset dy="4"/>
<feGaussianBlur stdDeviation="2"/>
<feComposite in2="hardAlpha" operator="out"/>
<feColorMatrix type="matrix" values="0 0 0 0 0 0 0 0 0 0 0 0 0 0 0 0 0 0 0.25 0"/>
<feBlend mode="normal" in2="effect1_dropShadow_4_59" result="effect2_dropShadow_4_59"/>
<feBlend mode="normal" in="SourceGraphic" in2="effect2_dropShadow_4_59" result="shape"/>
</filter>
<filter id="filter1_d_4_59" x="74.1273" y="62.5882" width="68.5818" height="78.4212" filterUnits="userSpaceOnUse" color-interpolation-filters="sRGB">
<feFlood flood-opacity="0" result="BackgroundImageFix"/>
<feColorMatrix in="SourceAlpha" type="matrix" values="0 0 0 0 0 0 0 0 0 0 0 0 0 0 0 0 0 0 127 0" result="hardAlpha"/>
<feOffset dy="4"/>
<feGaussianBlur stdDeviation="2"/>
<feComposite in2="hardAlpha" operator="out"/>
<feColorMatrix type="matrix" values="0 0 0 0 0 0 0 0 0 0 0 0 0 0 0 0 0 0 0.25 0"/>
<feBlend mode="normal" in2="BackgroundImageFix" result="effect1_dropShadow_4_59"/>
<feBlend mode="normal" in="SourceGraphic" in2="effect1_dropShadow_4_59" result="shape"/>
</filter>
</defs>
</svg>
