<svg width="186" height="184" viewBox="0 0 186 184" fill="none" xmlns="http://www.w3.org/2000/svg">
<path d="M180.184 91.794C180.184 103.192 177.919 114.478 173.517 125.009C169.115 135.539 162.663 145.107 154.529 153.167C146.396 161.226 136.74 167.619 126.112 171.981C115.485 176.343 104.095 178.588 92.5922 178.588C81.0895 178.588 69.6993 176.343 59.0721 171.981C48.445 167.619 38.7889 161.226 30.6552 153.167C22.5215 145.107 16.0695 135.539 11.6676 125.009C7.26564 114.478 5 103.192 5 91.794C5 68.7748 14.2284 46.6984 30.6552 30.4214C47.0819 14.1443 69.3613 5 92.5922 5C115.823 5 138.103 14.1443 154.529 30.4214C170.956 46.6984 180.184 68.7748 180.184 91.794Z" fill="#91F2BE" stroke="black" stroke-width="10" stroke-linecap="round" stroke-linejoin="round"/>
<g filter="url(#filter0_d_4_59)">
<path d="M119.376 83.7703L88.2613 63.2098C86.7942 62.2399 85.0887 61.6832 83.3271 61.5993C81.5655 61.5154 79.814 61.9074 78.2598 62.7334C76.7056 63.5594 75.4071 64.7883 74.5031 66.2888C73.5991 67.7894 73.1235 69.5051 73.1273 71.2527V112.364C73.1271 114.11 73.6052 115.823 74.5106 117.321C75.416 118.819 76.7148 120.045 78.2684 120.869C79.822 121.692 81.5721 122.083 83.332 121.998C85.0919 121.913 86.7956 121.357 88.2613 120.388L119.376 99.8272C120.709 98.9465 121.802 97.7534 122.558 96.3537C123.314 94.954 123.709 93.3911 123.709 91.8036C123.709 90.2161 123.314 88.6532 122.558 87.2535C121.802 85.8538 120.709 84.651 119.376 83.7703Z" stroke="black" stroke-width="10" stroke-linecap="round" stroke-linejoin="round" shape-rendering="crispEdges"/>
</g>
<defs>
<filter id="filter0_d_4_59" x="64.1273" y="56.5882" width="68.5818" height="78.4212" filterUnits="userSpaceOnUse" color-interpolation-filters="sRGB">
<feFlood flood-opacity="0" result="BackgroundImageFix"/>
<feColorMatrix in="SourceAlpha" type="matrix" values="0 0 0 0 0 0 0 0 0 0 0 0 0 0 0 0 0 0 127 0" result="hardAlpha"/>
<feOffset dy="4"/>
<feGaussianBlur stdDeviation="2"/>
<feComposite in2="hardAlpha" operator="out"/>
<feColorMatrix type="matrix" values="0 0 0 0 0 0 0 0 0 0 0 0 0 0 0 0 0 0 0.25 0"/>
<feBlend mode="normal" in2="BackgroundImageFix" result="effect1_dropShadow_4_59"/>
<feBlend mode="normal" in="SourceGraphic" in2="effect1_dropShadow_4_59" result="shape"/>
</filter>
</defs>
</svg>
