<svg width="70" height="70" viewBox="0 0 70 70" fill="none" xmlns="http://www.w3.org/2000/svg">
<g clip-path="url(#clip0_2270_3948)">
<circle cx="35" cy="35" r="35" fill="#F5F5F5"/>
<path d="M0 35C0 25.7174 3.68749 16.815 10.2513 10.2513C16.815 3.68749 25.7174 0 35 0C44.2826 0 53.185 3.68749 59.7487 10.2513C66.3125 16.815 70 25.7174 70 35C70 44.2826 66.3125 53.185 59.7487 59.7487C53.185 66.3125 44.2826 70 35 70C25.7174 70 16.815 66.3125 10.2513 59.7487C3.68749 53.185 0 44.2826 0 35ZM35 6.5625C27.4579 6.5625 20.2247 9.55859 14.8917 14.8917C9.55859 20.2247 6.5625 27.4579 6.5625 35C6.5625 42.5421 9.55859 49.7753 14.8917 55.1084C20.2247 60.4414 27.4579 63.4375 35 63.4375C42.5421 63.4375 49.7753 60.4414 55.1084 55.1084C60.4414 49.7753 63.4375 42.5421 63.4375 35C63.4375 27.4579 60.4414 20.2247 55.1084 14.8917C49.7753 9.55859 42.5421 6.5625 35 6.5625ZM28.4375 33.9062C28.4375 33.036 28.7832 32.2014 29.3986 31.5861C30.0139 30.9707 30.8485 30.625 31.7188 30.625H36.0938C36.964 30.625 37.7986 30.9707 38.4139 31.5861C39.0293 32.2014 39.375 33.036 39.375 33.9062V45.9375H40.4688C41.339 45.9375 42.1736 46.2832 42.7889 46.8986C43.4043 47.5139 43.75 48.3485 43.75 49.2188C43.75 50.089 43.4043 50.9236 42.7889 51.5389C42.1736 52.1543 41.339 52.5 40.4688 52.5H31.7188C30.8485 52.5 30.0139 52.1543 29.3986 51.5389C28.7832 50.9236 28.4375 50.089 28.4375 49.2188C28.4375 48.3485 28.7832 47.5139 29.3986 46.8986C30.0139 46.2832 30.8485 45.9375 31.7188 45.9375H32.8125V37.1875H31.7188C30.8485 37.1875 30.0139 36.8418 29.3986 36.2264C28.7832 35.6111 28.4375 34.7765 28.4375 33.9062ZM35 26.25C33.8397 26.25 32.7269 25.7891 31.9064 24.9686C31.0859 24.1481 30.625 23.0353 30.625 21.875C30.625 20.7147 31.0859 19.6019 31.9064 18.7814C32.7269 17.9609 33.8397 17.5 35 17.5C36.1603 17.5 37.2731 17.9609 38.0936 18.7814C38.9141 19.6019 39.375 20.7147 39.375 21.875C39.375 23.0353 38.9141 24.1481 38.0936 24.9686C37.2731 25.7891 36.1603 26.25 35 26.25Z" fill="black"/>
</g>
<defs>
<clipPath id="clip0_2270_3948">
<rect width="70" height="70" fill="white"/>
</clipPath>
</defs>
</svg>
