<?xml version="1.0" encoding="UTF-8"?>
<svg id="Layer_1" xmlns="http://www.w3.org/2000/svg" version="1.1" viewBox="0 0 199.01 180.25">
  <!-- Generator: Adobe Illustrator 30.5.1, SVG Export Plug-In . SVG Version: 2.1.4 Build 3)  -->
  <defs>
    <style>
      .st0 {
        fill-opacity: .8;
        fill-rule: evenodd;
      }
    </style>
  </defs>
  <path class="st0" d="M179.1,0c5.02,0,9.86,1.91,13.54,5.34,3.68,3.44,5.94,8.14,6.31,13.18l.05,1.5v140.2c0,5.05-1.9,9.92-5.31,13.62-3.41,3.71-8.09,5.98-13.1,6.35l-1.49.05H19.9c-5.02,0-9.86-1.91-13.54-5.34-3.68-3.44-5.94-8.14-6.31-13.18L0,160.23V20.03c0-5.05,1.89-9.92,5.31-13.62C8.72,2.7,13.4.43,18.41.05L19.9,0h159.2ZM179.1,20.03H19.9v140.2h159.2V20.03ZM82.99,46.45l5.15,2.3,3.36,1.6,3.85,1.9,4.28,2.18,4.68,2.5,5.04,2.8,2.65,1.52,5.15,3.05,4.72,2.92,4.28,2.73,3.78,2.53,4.78,3.3,3.62,2.63.95.7c1.54,1.15,2.78,2.65,3.64,4.37.86,1.72,1.31,3.62,1.31,5.55s-.45,3.83-1.31,5.55c-.86,1.72-2.11,3.22-3.64,4.37l-3.21,2.35-4.38,3.08-3.54,2.39-4.03,2.63-4.51,2.83-4.96,3-5.31,3.09-5.06,2.82-4.69,2.5-4.28,2.2-3.84,1.88-6.19,2.88-2.29,1c-1.76.76-3.67,1.1-5.58.99-1.91-.11-3.77-.67-5.42-1.63-1.66-.96-3.07-2.3-4.12-3.91-1.05-1.61-1.71-3.44-1.94-5.36l-.58-5.66-.32-3.75-.42-6.65-.23-5.09-.15-5.56-.04-2.94-.02-3.05c0-2.07.02-4.07.06-6.01l.15-5.56.23-5.08.27-4.58.3-4.02.75-7.45c.22-1.91.88-3.75,1.93-5.36,1.05-1.61,2.46-2.95,4.12-3.92,1.66-.96,3.52-1.53,5.43-1.64,1.91-.11,3.82.22,5.58.99ZM89.06,71.49l-4.34-2.18-.29,4.88-.22,5.52-.13,6.11-.02,3.25.02,3.25.13,6.1.1,2.83.26,5.21.15,2.35,4.32-2.18,4.85-2.56,5.32-2.94,2.83-1.62,5.48-3.26,4.92-3.06,4.34-2.8,1.95-1.3-4.05-2.7-4.64-2.94c-2.64-1.64-5.3-3.25-7.99-4.81l-2.82-1.61-5.31-2.94-4.86-2.56Z"/>
</svg>