<svg width="200" height="200" viewBox="0 0 200 200" fill="none" xmlns="http://www.w3.org/2000/svg">
<g clip-path="url(#clip0_4_263)">
<path fill-rule="evenodd" clip-rule="evenodd" d="M179.104 1.00661e-06C184.125 -0.00160204 188.961 1.91152 192.642 5.35587C196.324 8.80021 198.579 13.5212 198.955 18.5725L199.005 20.0783V160.627C199.007 165.692 197.11 170.571 193.697 174.285C190.283 178 185.604 180.275 180.597 180.655L179.104 180.705H19.9005C14.8798 180.707 10.0441 178.793 6.36271 175.349C2.6813 171.905 0.426303 167.184 0.0497534 162.133L9.97692e-07 160.627V20.0783C-0.00158785 15.0128 1.89459 10.1339 5.30843 6.41957C8.72226 2.70526 13.4014 0.430112 18.408 0.050198L19.9005 1.00661e-06H179.104ZM179.104 20.0783H19.9005V160.627H179.104V20.0783ZM82.9851 46.5617L88.1393 48.8707L91.5025 50.4769L95.3532 52.3844L99.6318 54.5729L104.308 57.0827L109.353 59.8937L112 61.4196L117.154 64.4816L121.871 67.413L126.149 70.1537L129.93 72.6936L134.706 76.0065L138.328 78.6468L139.274 79.3496C140.809 80.5024 142.056 82.0015 142.916 83.7271C143.775 85.4528 144.222 87.3572 144.222 89.2884C144.222 91.2195 143.775 93.1239 142.916 94.8496C142.056 96.5752 140.809 98.0743 139.274 99.2271L136.06 101.586L131.682 104.678L128.139 107.078L124.109 109.718L119.602 112.559L114.637 115.571L109.323 118.673L104.259 121.504L99.5721 124.014L95.2935 126.222L91.4527 128.11L85.2637 131.001L82.9751 132.005C81.2181 132.769 79.3085 133.108 77.3987 132.995C75.4888 132.882 73.6314 132.321 71.9747 131.356C70.318 130.39 68.9079 129.047 67.8567 127.435C66.8056 125.822 66.1425 123.983 65.9204 122.066L65.3433 116.394L65.0249 112.639L64.607 105.973L64.3781 100.874L64.2289 95.3018L64.1891 92.3503L64.1692 89.2884C64.1692 87.2136 64.1891 85.2058 64.2289 83.2649L64.3781 77.6931L64.607 72.6033L64.8756 68.0154L65.1741 63.9897L65.9204 56.5205C66.1412 54.6012 66.8036 52.7605 67.8546 51.1453C68.9057 49.5301 70.3164 48.1852 71.9741 47.2177C73.6319 46.2503 75.4908 45.6871 77.4025 45.5732C79.3143 45.4593 81.226 45.7978 82.9851 46.5617ZM89.0647 71.6696L84.7264 69.4811L84.4378 74.3702L84.2189 79.9017L84.0896 86.0256L84.0697 89.2884L84.0896 92.5511L84.2189 98.6649L84.3184 101.506L84.5771 106.726L84.7264 109.086L89.0448 106.897L93.8905 104.327L99.2139 101.376L102.04 99.7492L107.522 96.4764L112.438 93.4044L116.776 90.5934L118.726 89.2884L114.677 86.5778L110.04 83.6263C107.401 81.9782 104.738 80.3717 102.05 78.8075L99.2338 77.1912L93.9204 74.2396L89.0647 71.6696Z" fill="black" fill-opacity="0.8"/>
</g>
<defs>
<clipPath id="clip0_4_263">
<rect width="200" height="200" fill="white"/>
</clipPath>
</defs>
</svg>
