<?xml version="1.0" encoding="UTF-8"?>
<svg id="Layer_2" data-name="Layer 2" xmlns="http://www.w3.org/2000/svg" viewBox="0 0 64.78 58.91">
  <defs>
    <style>
      .cls-1 {
        fill: #fff;
      }
    </style>
  </defs>
  <g id="Layer_2-2" data-name="Layer 2">
    <path d="M43.19,57.97c-16.4,1.53-37.94,3.88-41.49-17.38C-1.79,21.93-1.91,4.04,21.24,1.14c16.58-2.14,41.74-3.65,43.17,18.81,1.23,17.46.56,36.11-21.21,38.02h0Z"/>
    <path class="cls-1" d="M53.82,43.69c-1.22.03-2.88-.26-4.93-.84-.3-6.85-1.37-17.92-2.49-23.27-2.64,4.93-5.39,15.03-6.49,18.78-1.74.09-2.62.12-4.36.24-3.71-5.03-5.59-7.53-9.45-12.5.08,13.91,6.01,20.15-9.59,17.17-.54-11.24-.16-22.52-.25-33.77,2.24-1.71,3.38-2.56,5.65-4.27,5.65,7.44,8.4,11.19,13.74,18.75,1.18-4.7,6.74-15.8,9.42-19.85,3.34.84,4.99,1.27,8.29,2.16,2.02,10.98,5.1,26.26,5.71,36.23-1.49.52-3.17,1.12-5.25,1.17h-.01Z"/>
  </g>
</svg>